<?xml version="1.0" encoding="utf-8"?>
<!-- Generator: Adobe Illustrator 16.0.3, SVG Export Plug-In . SVG Version: 6.00 Build 0)  -->
<!DOCTYPE svg PUBLIC "-//W3C//DTD SVG 1.1//EN" "http://www.w3.org/Graphics/SVG/1.1/DTD/svg11.dtd">
<svg version="1.1" id="Capa_1" xmlns="http://www.w3.org/2000/svg" xmlns:xlink="http://www.w3.org/1999/xlink" x="0px" y="0px"
	 width="851px" height="315px" viewBox="0 0 851 315" enable-background="new 0 0 851 315" xml:space="preserve">
<g>
	
		<text transform="matrix(1 0 0 1 163.2495 204.3428)" fill="#6D00D6" font-family="'Ubuntu-Bold'" font-size="140.6125" letter-spacing="-7">pasajefacil</text>
</g>
<path id="XMLID_10_" fill="#2A0066" d="M29.841,95.939C19.933,95.939,12,106.915,12,116.33v108.748h67.967h67.967V116.33
	c0-9.415-7.933-20.39-17.841-20.39H29.841z M66.374,102.736h27.187v15.859H66.374V102.736z M18.797,123.126h122.341V177.5H18.797
	V123.126z M33.452,188.831c7.902,0,14.231,6.085,14.231,13.594c0,7.506-6.329,13.593-14.231,13.593
	c-7.901,0-14.23-6.087-14.23-13.593C19.222,194.916,25.551,188.831,33.452,188.831z M126.482,188.831
	c7.904,0,14.231,6.085,14.231,13.594c0,7.506-6.327,13.593-14.231,13.593s-14.23-6.087-14.23-13.593
	C112.251,194.916,118.581,188.831,126.482,188.831z M12,229.609v10.336v7.009c0,5.892,4.726,12.106,10.62,12.106h10.62
	c5.894,0,10.62-6.215,10.62-12.106v-8.283h72.215v8.283c0,5.892,4.726,12.106,10.62,12.106h10.62c5.894,0,10.62-6.215,10.62-12.106
	v-7.009v-10.336H12z"/>
</svg>
